<svg width="98" height="96" viewBox="0 0 98 96" fill="none" xmlns="http://www.w3.org/2000/svg">
<path d="M96 48C96 73.3664 74.9965 94 49 94C23.0035 94 2 73.3664 2 48C2 22.6336 23.0035 2 49 2C74.9965 2 96 22.6336 96 48Z" stroke="white" stroke-width="4"/>
<path d="M30.74 36.8H37.94L29.84 49.4L38.12 62H30.92L25.88 54.08L20.84 62H13.64L21.92 49.4L13.82 36.8H20.984L25.88 44.72L30.74 36.8Z" fill="#9012CB"/>
<path d="M46.64 46.96H59.78V52H40.16V26.8H46.64V46.96Z" fill="#60FF15"/>
<path d="M78.36 43.64C78.36 42.2 77.64 41.48 76.2 41.48H70.08C68.64 41.48 67.92 42.2 67.92 43.64V55.16C67.92 56.6 68.64 57.32 70.08 57.32H76.2C77.64 57.32 78.36 56.6 78.36 55.16V43.64ZM84.84 55.16C84.84 57.68 84.264 59.516 83.112 60.668C81.984 61.796 80.16 62.36 77.64 62.36H68.64C66.12 62.36 64.284 61.796 63.132 60.668C62.004 59.516 61.44 57.68 61.44 55.16V43.64C61.44 41.12 62.004 39.296 63.132 38.168C64.284 37.016 66.12 36.44 68.64 36.44H77.64C80.16 36.44 81.984 37.016 83.112 38.168C84.264 39.296 84.84 41.12 84.84 43.64V55.16Z" fill="#DB8724"/>
</svg>
